<?xml version="1.0" encoding="UTF-8" standalone="no"?>
<!-- Generator: Adobe Illustrator 16.0.0, SVG Export Plug-In . SVG Version: 6.00 Build 0)  -->

<svg
   xmlns:dc="http://purl.org/dc/elements/1.1/"
   xmlns:cc="http://creativecommons.org/ns#"
   xmlns:rdf="http://www.w3.org/1999/02/22-rdf-syntax-ns#"
   xmlns:svg="http://www.w3.org/2000/svg"
   xmlns="http://www.w3.org/2000/svg"
   xmlns:sodipodi="http://sodipodi.sourceforge.net/DTD/sodipodi-0.dtd"
   xmlns:inkscape="http://www.inkscape.org/namespaces/inkscape"
   version="1.1"
   id="Layer_1"
   x="0px"
   y="0px"
   width="55.359146mm"
   height="16.717409mm"
   viewBox="0 0 196.15446 59.234912"
   enable-background="new 0 0 262.75 169.438"
   xml:space="preserve"
   inkscape:version="0.91 r13725"
   sodipodi:docname="medtour-logo1.svg"><metadata
     id="metadata21"><rdf:RDF><cc:Work
         rdf:about=""><dc:format>image/svg+xml</dc:format><dc:type
           rdf:resource="http://purl.org/dc/dcmitype/StillImage" /><dc:title></dc:title></cc:Work></rdf:RDF></metadata><defs
     id="defs19" /><sodipodi:namedview
     pagecolor="#ffffff"
     bordercolor="#666666"
     borderopacity="1"
     objecttolerance="10"
     gridtolerance="10"
     guidetolerance="10"
     inkscape:pageopacity="0"
     inkscape:pageshadow="2"
     inkscape:window-width="1366"
     inkscape:window-height="715"
     id="namedview17"
     showgrid="false"
     units="mm"
     fit-margin-top="0"
     fit-margin-left="0"
     fit-margin-right="0"
     fit-margin-bottom="0"
     inkscape:zoom="2.1921979"
     inkscape:cx="5.0946899"
     inkscape:cy="7.9719281"
     inkscape:window-x="-8"
     inkscape:window-y="-8"
     inkscape:window-maximized="1"
     inkscape:current-layer="Layer_1" /><g
     style="font-size:12.60798931px"
     id="text7"
     transform="translate(6.29422,0)"><path
       d="m 129.88277,53.243542 q -0.91741,0.242333 -2.0079,0.398119 -1.07319,0.155786 -1.92136,0.155786 -2.95993,0 -4.50047,-1.592475 -1.54055,-1.592476 -1.54055,-5.106307 l 0,-10.28185 -2.19831,0 0,-2.734904 2.19831,0 0,-5.556353 3.25419,0 0,5.556353 6.71609,0 0,2.734904 -6.71609,0 0,8.810542 q 0,1.523237 0.0692,2.388712 0.0692,0.848167 0.48466,1.592476 0.38081,0.69238 1.03857,1.021261 0.67507,0.311571 2.04253,0.311571 0.79623,0 1.66171,-0.225024 0.86547,-0.242333 1.24628,-0.398118 l 0.1731,0 0,2.925307 z"
       style="font-size:35.44988251px;font-family:STHeitiTC-Medium;fill:#6fc6a9"
       id="path4143"
       inkscape:connector-curvature="0" /><path
       d="m 150.30799,43.757929 q 0,4.725497 -2.42333,7.4604 -2.42333,2.734903 -6.49106,2.734903 -4.10236,0 -6.52569,-2.734903 -2.40602,-2.734903 -2.40602,-7.4604 0,-4.725497 2.40602,-7.4604 2.42333,-2.752212 6.52569,-2.752212 4.06773,0 6.49106,2.752212 2.42333,2.734903 2.42333,7.4604 z m -3.35804,0 q 0,-3.756164 -1.47131,-5.573663 -1.47131,-1.834808 -4.08504,-1.834808 -2.64836,0 -4.11967,1.834808 -1.454,1.817499 -1.454,5.573663 0,3.634998 1.47131,5.521735 1.47131,1.869427 4.10236,1.869427 2.59642,0 4.06773,-1.852118 1.48862,-1.869427 1.48862,-5.539044 z"
       style="font-size:35.44988251px;font-family:STHeitiTC-Medium;fill:#6fc6a9"
       id="path4145"
       inkscape:connector-curvature="0" /><path
       d="m 171.39098,53.416637 -3.25419,0 0,-2.146379 q -1.6444,1.298213 -3.15033,1.990594 -1.50593,0.69238 -3.32343,0.69238 -3.04647,0 -4.7428,-1.852118 -1.69634,-1.869427 -1.69634,-5.469806 l 0,-12.549397 3.25419,0 0,11.008851 q 0,1.471308 0.13848,2.527189 0.13847,1.03857 0.58852,1.782879 0.46736,0.761619 1.21167,1.107809 0.74431,0.346191 2.16369,0.346191 1.26359,0 2.75221,-0.657762 1.50593,-0.657761 2.80414,-1.679023 l 0,-14.436134 3.25419,0 0,19.334726 z"
       style="font-size:35.44988251px;font-family:STHeitiTC-Medium;fill:#6fc6a9"
       id="path4147"
       inkscape:connector-curvature="0" /><path
       d="m 189.86023,37.630362 -0.1731,0 q -0.727,-0.173096 -1.41938,-0.242334 -0.67507,-0.08655 -1.60978,-0.08655 -1.50593,0 -2.908,0.675071 -1.40207,0.657761 -2.70028,1.713642 l 0,13.726443 -3.25419,0 0,-19.334726 3.25419,0 0,2.85607 q 1.93866,-1.557856 3.40997,-2.198308 1.48862,-0.657762 3.02917,-0.657762 0.84816,0 1.22897,0.05193 0.38081,0.03462 1.14243,0.155786 l 0,3.340736 z"
       style="font-size:35.44988251px;font-family:STHeitiTC-Medium;fill:#6fc6a9"
       id="path4149"
       inkscape:connector-curvature="0" /></g><g
     id="g4139"
     transform="translate(-45.440462,3.8146973e-6)"><ellipse
       style="fill:#d9efee"
       id="ellipse3"
       ry="3.7820001"
       rx="19.195999"
       cy="55.452908"
       cx="66.77346" /><path
       style="fill:#6fc6a9"
       inkscape:connector-curvature="0"
       id="path5"
       d="m 45.440462,21.140997 c 0,-12.9300008 8.275,-21.1410008146973 21.333,-21.1410008146973 13.058,0 21.334,8.2110000146973 21.334,21.0120008146973 0,12.865 -21.334,34.439005 -21.334,34.439005 0,0 -21.333,-21.317005 -21.333,-34.310005 z m 11.908,2.953 c 0,7.58 3.551,12.157 9.493,12.157 5.942,0 9.358,-4.44 9.358,-12.021 0,-7.649 -3.485,-12.156 -9.289,-12.156 -6.011,0 -9.562,4.507 -9.562,12.02 z" /><path
       style="fill:#fdc06b"
       inkscape:connector-curvature="0"
       id="path13"
       d="m 63.414462,24.495997 0,1.986 c 0,1.847 1.498,3.344 3.344,3.344 l 0.033,0 c 1.846,0 3.344,-1.497 3.344,-3.344 l 0,-1.986 -6.721,0 z" /><path
       style="fill:#f58a6c"
       inkscape:connector-curvature="0"
       id="path15"
       d="m 70.134462,24.495997 0,-1.985 c 0,-1.846 -1.498,-3.344 -3.344,-3.344 l -0.033,0 c -1.846,0 -3.344,1.498 -3.344,3.344 l 0,1.985 6.721,0 z" /></g><g
     style="font-size:12.60798931px"
     id="text4140"
     transform="translate(-1.70578,0)"><path
       d="m 76.181517,53.416637 -3.254188,0 0,-11.00885 q 0,-1.246285 -0.121167,-2.406022 -0.103857,-1.159737 -0.467356,-1.852118 -0.398119,-0.744309 -1.142428,-1.125118 -0.744309,-0.38081 -2.14638,-0.38081 -1.367451,0 -2.734903,0.692381 -1.367451,0.675071 -2.734903,1.730951 0.05193,0.398119 0.08655,0.934714 0.03462,0.519285 0.03462,1.038571 l 0,12.376301 -3.254189,0 0,-11.00885 q 0,-1.280904 -0.121166,-2.423332 -0.103858,-1.159737 -0.467357,-1.852118 -0.398119,-0.744309 -1.142428,-1.107808 -0.744309,-0.38081 -2.14638,-0.38081 -1.332832,0 -2.682974,0.657762 -1.332833,0.657761 -2.665665,1.679023 l 0,14.436133 -3.254189,0 0,-19.334726 3.254189,0 0,2.14638 q 1.523237,-1.263594 3.029165,-1.973284 1.523237,-0.70969 3.236878,-0.70969 1.973285,0 3.340736,0.830856 1.384761,0.830857 2.059832,2.302165 1.973285,-1.661713 3.600379,-2.388712 1.627094,-0.744309 3.479212,-0.744309 3.184951,0 4.690878,1.938665 1.523237,1.921356 1.523237,5.383259 l 0,12.549396 z"
       style="font-size:35.44988251px;font-family:STHeitiTC-Light;fill:#ffd180"
       id="path4152"
       inkscape:connector-curvature="0" /><path
       d="m 98.631955,44.08681 -14.245729,0 q 0,1.78288 0.536595,3.115712 0.536594,1.315523 1.471308,2.163689 0.900095,0.830857 2.12907,1.246285 1.246285,0.415429 2.734903,0.415429 1.973285,0 3.963879,-0.778928 2.007903,-0.796238 2.856069,-1.557857 l 0.173096,0 0,3.548451 q -1.644404,0.69238 -3.358046,1.159737 -1.713642,0.467357 -3.600379,0.467357 -4.812044,0 -7.512328,-2.596427 -2.700284,-2.613737 -2.700284,-7.408472 0,-4.742806 2.579117,-7.529638 2.596427,-2.786831 6.819948,-2.786831 3.91195,0 6.023711,2.284855 2.12907,2.284856 2.12907,6.491068 l 0,1.76557 z m -3.167641,-2.49257 q -0.01731,-2.561808 -1.298214,-3.963878 -1.263594,-1.402071 -3.860021,-1.402071 -2.613736,0 -4.171593,1.540547 -1.540546,1.540546 -1.74826,3.825402 l 11.078088,0 z"
       style="font-size:35.44988251px;font-family:STHeitiTC-Light;fill:#ffd180"
       id="path4154"
       inkscape:connector-curvature="0" /><path
       d="m 119.24758,53.416637 -3.25419,0 0,-2.025213 q -1.40207,1.211666 -2.9253,1.886737 -1.52324,0.675071 -3.30612,0.675071 -3.4619,0 -5.50443,-2.665665 -2.02521,-2.665665 -2.02521,-7.391162 0,-2.457951 0.69238,-4.379306 0.70969,-1.921356 1.90405,-3.271498 1.17704,-1.315523 2.7349,-2.007904 1.57517,-0.69238 3.25419,-0.69238 1.52324,0 2.70028,0.32888 1.17705,0.311572 2.47526,0.986643 l 0,-8.377805 3.25419,0 0,26.933602 z m -3.25419,-4.760116 0,-11.095397 q -1.31552,-0.588524 -2.35409,-0.813548 -1.03857,-0.225023 -2.26755,-0.225023 -2.7349,0 -4.25814,1.904046 -1.52323,1.904047 -1.52323,5.400568 0,3.444593 1.17704,5.244783 1.17705,1.78288 3.77348,1.78288 1.38476,0 2.80414,-0.605833 1.41938,-0.623143 2.64835,-1.592476 z"
       style="font-size:35.44988251px;font-family:STHeitiTC-Light;fill:#ffd180"
       id="path4156"
       inkscape:connector-curvature="0" /></g></svg>